<!DOCTYPE svg PUBLIC "-//W3C//DTD SVG 1.1//EN" "http://www.w3.org/Graphics/SVG/1.1/DTD/svg11.dtd">
<!-- Uploaded to: SVG Repo, www.svgrepo.com, Transformed by: SVG Repo Mixer Tools -->
<svg fill="#00cd00" height="800px" width="800px" version="1.1" id="Capa_1" xmlns="http://www.w3.org/2000/svg" xmlns:xlink="http://www.w3.org/1999/xlink" viewBox="0 0 502.664 502.664" xml:space="preserve" stroke="#00cd00">
<g id="SVGRepo_bgCarrier" stroke-width="0"/>
<g id="SVGRepo_tracerCarrier" stroke-linecap="round" stroke-linejoin="round"/>
<g id="SVGRepo_iconCarrier"> <g> <g> <g> <path d="M375.795,0c0,0-54.121,38.935-124.075,38.935S126.825,0,126.825,0L62.868,53.129c0,0,0,192.347,0,271.145 c0,78.82,191.764,178.39,191.764,178.39s185.164-95.58,185.164-178.39c0-82.724,0-271.145,0-271.145L375.795,0z M361.257,190.47 h-28.301v81.106h28.301v68.121h-68.013v-34.211h-83.802v34.211h-68.056v-68.121h28.301V190.47h-28.301v-68.121h68.034v34.233 h83.824v-34.233h67.991L361.257,190.47L361.257,190.47z"/> <path d="M293.244,170.927c-24.181,0-59.643,0-83.824,0v19.543h-25.367c0,22.628,0,58.457,0,81.106h25.389v19.565 c24.181,0,59.665,0,83.802,0v-19.565h25.41c0-22.649,0-58.457,0-81.106h-25.41V170.927L293.244,170.927z"/> </g> </g> <g> </g> <g> </g> <g> </g> <g> </g> <g> </g> <g> </g> <g> </g> <g> </g> <g> </g> <g> </g> <g> </g> <g> </g> <g> </g> <g> </g> <g> </g> </g> </g>
</svg>