<!DOCTYPE svg PUBLIC "-//W3C//DTD SVG 1.1//EN" "http://www.w3.org/Graphics/SVG/1.1/DTD/svg11.dtd">
<!-- Uploaded to: SVG Repo, www.svgrepo.com, Transformed by: SVG Repo Mixer Tools -->
<svg fill="#00cd00" height="800px" width="800px" version="1.1" id="Layer_1" xmlns="http://www.w3.org/2000/svg" xmlns:xlink="http://www.w3.org/1999/xlink" viewBox="0 0 512.001 512.001" xml:space="preserve" stroke="#00cd00">
<g id="SVGRepo_bgCarrier" stroke-width="0"/>
<g id="SVGRepo_tracerCarrier" stroke-linecap="round" stroke-linejoin="round"/>
<g id="SVGRepo_iconCarrier"> <g> <g> <path d="M457.218,200.548c-23.118,0-42.922,14.401-50.952,34.697h-47.612c-2.892-13.776-8.663-26.495-16.635-37.53l34.436-34.436 c6.944,3.007,14.382,4.526,21.826,4.526c14.029,0,28.058-5.34,38.737-16.02c10.348-10.347,16.045-24.104,16.045-38.737 s-5.699-28.391-16.045-38.737c-10.347-10.348-24.104-16.045-38.738-16.045c-14.633,0-28.39,5.699-38.737,16.045 c-16.347,16.347-20.167,40.534-11.493,60.563l-35.646,35.646c-9.427-5.647-19.858-9.78-30.965-12.044v-46.358 c20.431-7.963,34.954-27.838,34.954-51.053c0-30.207-24.575-54.783-54.782-54.783c-30.207,0-54.782,24.576-54.782,54.783 c0,23.02,14.279,42.756,34.441,50.851v46.673c-11.718,2.453-22.671,6.994-32.479,13.193l-36.885-36.885 c2.961-6.805,4.53-14.204,4.53-21.849c0-14.633-5.699-28.39-16.045-38.737c-10.347-10.348-24.104-16.045-38.737-16.045 s-28.39,5.699-38.737,16.045c-21.36,21.359-21.36,56.113,0,77.474c10.68,10.68,24.709,16.019,38.737,16.019 c7.444,0,14.883-1.52,21.826-4.526l36.357,36.357c-7.27,10.58-12.543,22.629-15.268,35.609h-58.835 c-8.03-20.296-27.834-34.697-50.952-34.697C24.575,200.548,0,225.123,0,255.331c0,30.207,24.575,54.782,54.782,54.782 c23.118,0,42.922-14.401,50.952-34.697h58.701c2.26,11.127,6.398,21.578,12.054,31.021l-40.946,40.946 c-20.029-8.674-44.216-4.854-60.563,11.493c-10.348,10.347-16.045,24.104-16.045,38.738c0,14.633,5.699,28.39,16.045,38.737 c10.681,10.681,24.706,16.02,38.737,16.02c14.028,0,28.059-5.341,38.738-16.02c16.347-16.347,20.167-40.534,11.494-60.563 l39.737-39.737c11.05,7.983,23.789,13.76,37.586,16.648v47.388c-20.16,8.094-34.441,27.83-34.441,50.851 c0,30.207,24.575,54.782,54.782,54.782s54.782-24.576,54.782-54.782c0-23.215-14.522-43.088-34.954-51.053v-47.073 c13.197-2.689,25.443-8.017,36.178-15.393l30.432,30.432c-8.673,20.029-4.853,44.216,11.493,60.563 c10.348,10.348,24.104,16.045,38.738,16.045c14.634,0,28.391-5.699,38.737-16.045c10.348-10.347,16.046-24.104,16.046-38.737 s-5.699-28.39-16.046-38.738c-16.347-16.347-40.533-20.167-60.563-11.493l-30.982-30.982c6.3-9.966,10.892-21.115,13.317-33.047 h47.476c8.03,20.296,27.834,34.697,50.952,34.697c30.207,0,54.782-24.576,54.782-54.782 C512,225.123,487.425,200.548,457.218,200.548z M387.95,102.716c2.761-2.76,6.43-4.28,10.332-4.28c3.903,0,7.572,1.52,10.332,4.28 c2.76,2.76,4.28,6.429,4.28,10.332s-1.52,7.572-4.28,10.332c-5.698,5.695-14.968,5.696-20.664,0 C382.253,117.684,382.253,108.414,387.95,102.716z M131.986,123.38c-5.698,5.695-14.968,5.696-20.664,0 c-5.696-5.696-5.696-14.966,0-20.664c2.761-2.76,6.43-4.28,10.332-4.28c3.903,0,7.572,1.52,10.332,4.28 c2.76,2.76,4.279,6.429,4.279,10.332S134.746,120.62,131.986,123.38z M54.782,269.943c-8.057,0-14.611-6.556-14.611-14.611 c0-8.057,6.555-14.611,14.611-14.611s14.613,6.555,14.613,14.611C69.395,263.387,62.839,269.943,54.782,269.943z M124.05,407.945 c-5.696,5.696-14.968,5.696-20.665,0c-2.758-2.76-4.278-6.43-4.278-10.332c0-3.903,1.52-7.572,4.28-10.333 c2.848-2.848,6.591-4.271,10.332-4.271c3.741,0,7.484,1.423,10.332,4.271C129.746,392.977,129.746,402.247,124.05,407.945z M261.613,46.452c8.057,0,14.611,6.556,14.611,14.613s-6.555,14.611-14.611,14.611s-14.611-6.555-14.611-14.611 S253.556,46.452,261.613,46.452z M261.613,465.548c-8.057,0-14.611-6.556-14.611-14.611c0-8.057,6.555-14.611,14.611-14.611 s14.611,6.556,14.611,14.611S269.669,465.548,261.613,465.548z M261.613,314.635c-32.528,0-58.992-26.464-58.992-58.992 c0-32.528,26.463-58.992,58.992-58.992c32.529,0,58.992,26.463,58.992,58.992C320.604,288.171,294.14,314.635,261.613,314.635z M387.95,379.343c2.848-2.848,6.591-4.271,10.332-4.271c3.741,0,7.484,1.423,10.332,4.271c2.761,2.761,4.281,6.43,4.281,10.333 c0,3.902-1.52,7.571-4.281,10.332c-2.76,2.761-6.429,4.28-10.332,4.28s-7.572-1.52-10.332-4.28 C382.254,394.311,382.254,385.041,387.95,379.343z M457.218,269.941c-8.057,0-14.613-6.556-14.613-14.611 c0-8.057,6.556-14.611,14.613-14.611s14.611,6.555,14.611,14.611C471.829,263.387,465.275,269.941,457.218,269.941z"/> </g> </g> <g> <g> <path d="M160.392,74.312L160.392,74.312L160.392,74.312z"/> </g> </g> </g>
</svg>