<!DOCTYPE svg PUBLIC "-//W3C//DTD SVG 1.1//EN" "http://www.w3.org/Graphics/SVG/1.1/DTD/svg11.dtd">
<!-- Uploaded to: SVG Repo, www.svgrepo.com, Transformed by: SVG Repo Mixer Tools -->
<svg fill="#00cd00" height="800px" width="800px" version="1.1" id="Capa_1" xmlns="http://www.w3.org/2000/svg" xmlns:xlink="http://www.w3.org/1999/xlink" viewBox="0 0 59 59" xml:space="preserve" stroke="#00cd00">
<g id="SVGRepo_bgCarrier" stroke-width="0"/>
<g id="SVGRepo_tracerCarrier" stroke-linecap="round" stroke-linejoin="round"/>
<g id="SVGRepo_iconCarrier"> <g> <path d="M52.5,14c-0.182,0-0.356,0.03-0.532,0.054L43.933,6.02C44.284,5.425,44.5,4.74,44.5,4c0-2.206-1.794-4-4-4 c-1.868,0-3.429,1.292-3.866,3.027C36.588,3.021,36.547,3,36.5,3h-6c0-0.553-0.448-1-1-1s-1,0.447-1,1h-6 c-0.047,0-0.088,0.021-0.134,0.027C21.929,1.292,20.368,0,18.5,0c-2.206,0-4,1.794-4,4c0,0.74,0.216,1.425,0.567,2.02l-8.035,8.034 C6.856,14.03,6.682,14,6.5,14c-2.206,0-4,1.794-4,4s1.794,4,4,4c0.16,0,0.312-0.029,0.468-0.047l8.76,10.662 c0.198,0.24,0.484,0.365,0.773,0.365c0.224,0,0.448-0.074,0.634-0.228c0.427-0.351,0.488-0.98,0.138-1.407L8.912,21.17 C9.871,20.438,10.5,19.296,10.5,18c0-1.252-0.59-2.358-1.494-3.092l7.475-7.475C17.076,7.785,17.761,8,18.5,8 c1.868,0,3.429-1.292,3.866-3.027C22.412,4.979,22.453,5,22.5,5h6v4h-6c-0.552,0-1,0.447-1,1s0.448,1,1,1h6v2h-8 c-0.552,0-1,0.447-1,1s0.448,1,1,1h8v2h-12c-0.552,0-1,0.447-1,1s0.448,1,1,1h12v2h-12c-0.552,0-1,0.447-1,1s0.448,1,1,1h12v2h-8 c-0.552,0-1,0.447-1,1s0.448,1,1,1h8v2h-6c-0.552,0-1,0.447-1,1s0.448,1,1,1h6v5h-3c-0.957,0-1.893,0.28-2.709,0.81l-0.969,0.932 c-0.822,0.814-2.005,1.169-3.037,0.896c-0.417-0.11-0.888-0.166-1.4-0.166c-1.365,0-3.267,0.424-4.509,1.567 C12.75,40.026,12.629,40,12.5,40c-2.206,0-4,1.794-4,4c0,1.859,1.28,3.411,3,3.858V58c0,0.553,0.448,1,1,1s1-0.447,1-1V47.858 c0.092-0.024,0.181-0.054,0.271-0.084l7.148,6.185c1.63,1.631,4.327,2.014,6.235,0.854c0.937-0.568,1.641-1.399,2.036-2.405 c0.056-0.144,0.169-0.259,0.315-0.325c0.146,0.067,0.259,0.182,0.316,0.326c0.395,1.004,1.099,1.836,2.037,2.405 c0.753,0.457,1.624,0.698,2.52,0.698c1.374,0,2.728-0.565,3.646-1.49l7.436-6.176c0.014,0.004,0.026,0.009,0.04,0.012V58 c0,0.553,0.448,1,1,1s1-0.447,1-1V47.858c1.72-0.447,3-1.999,3-3.858c0-2.206-1.794-4-4-4c-0.12,0-0.234,0.025-0.352,0.036 c-1.489-1.213-3.976-1.734-5.423-1.503c-1.351,0.216-2.627-0.215-3.383-1.152l-0.715-0.885l-0.229-0.098 C35.779,36.134,35.124,36,34.449,36H30.5v-5h6c0.552,0,1-0.447,1-1s-0.448-1-1-1h-6v-2h8c0.552,0,1-0.447,1-1s-0.448-1-1-1h-8v-2 h12c0.552,0,1-0.447,1-1s-0.448-1-1-1h-12v-2h12c0.552,0,1-0.447,1-1s-0.448-1-1-1h-12v-2h8c0.552,0,1-0.447,1-1s-0.448-1-1-1h-8 v-2h6c0.552,0,1-0.447,1-1s-0.448-1-1-1h-6V5h6c0.047,0,0.088-0.021,0.134-0.027C37.071,6.708,38.632,8,40.5,8 c0.739,0,1.424-0.215,2.019-0.567l7.475,7.475C49.09,15.642,48.5,16.748,48.5,18c0,1.296,0.629,2.438,1.588,3.17l-8.36,10.175 c-0.351,0.427-0.289,1.057,0.138,1.407c0.186,0.153,0.411,0.228,0.634,0.228c0.289,0,0.575-0.125,0.773-0.365l8.76-10.662 C52.188,21.971,52.34,22,52.5,22c2.206,0,4-1.794,4-4S54.706,14,52.5,14z M14.433,44.487c-0.008,0.03-0.019,0.059-0.028,0.089 c-0.045,0.143-0.101,0.283-0.177,0.412c-0.004,0.007-0.008,0.015-0.012,0.022c-0.179,0.297-0.435,0.55-0.751,0.727l-0.193,0.108 C13.035,45.944,12.774,46,12.5,46c-1.103,0-2-0.897-2-2s0.897-2,2-2c0.119,0,0.233,0.015,0.346,0.035l0.143,0.036 c0.329,0.083,0.62,0.245,0.858,0.46c0.004,0.004,0.009,0.007,0.013,0.011c0.058,0.053,0.109,0.114,0.16,0.173 c0.028,0.033,0.057,0.065,0.082,0.1c0.039,0.052,0.074,0.107,0.107,0.163c0.03,0.05,0.058,0.101,0.084,0.154 c0.025,0.051,0.048,0.102,0.069,0.155c0.026,0.068,0.047,0.139,0.065,0.21c0.012,0.044,0.026,0.088,0.034,0.133 C14.485,43.751,14.5,43.874,14.5,44C14.5,44.167,14.474,44.329,14.433,44.487z M22.5,50c-2.206,0-4-1.794-4-4s1.794-4,4-4 s4,1.794,4,4S24.706,50,22.5,50z M44.538,43.622c0.007-0.035,0.018-0.068,0.027-0.102c0.022-0.088,0.047-0.174,0.08-0.256 c0.014-0.035,0.031-0.069,0.047-0.103c0.036-0.078,0.077-0.154,0.123-0.226c0.02-0.032,0.041-0.063,0.063-0.094 c0.049-0.068,0.103-0.132,0.16-0.193c0.027-0.03,0.054-0.06,0.083-0.088c0.054-0.052,0.114-0.098,0.174-0.143 c0.04-0.03,0.077-0.063,0.119-0.09c0.039-0.025,0.082-0.044,0.123-0.067c0.161-0.088,0.332-0.161,0.519-0.204l0.083-0.019 C46.255,42.015,46.376,42,46.5,42c1.103,0,2,0.897,2,2s-0.897,2-2,2c-0.26,0-0.508-0.053-0.736-0.145l-0.096-0.044 c-0.171-0.079-0.325-0.182-0.464-0.301c-0.009-0.008-0.019-0.015-0.027-0.023c-0.265-0.235-0.459-0.538-0.57-0.872 c-0.011-0.034-0.022-0.067-0.032-0.102C44.53,44.348,44.5,44.177,44.5,44C44.5,43.871,44.515,43.745,44.538,43.622z M35.5,42 c2.206,0,4,1.794,4,4s-1.794,4-4,4s-4-1.794-4-4S33.294,42,35.5,42z"/> </g> </g>
</svg>