<!DOCTYPE svg PUBLIC "-//W3C//DTD SVG 1.1//EN" "http://www.w3.org/Graphics/SVG/1.1/DTD/svg11.dtd">
<!-- Uploaded to: SVG Repo, www.svgrepo.com, Transformed by: SVG Repo Mixer Tools -->
<svg fill="#00cd00" height="800px" width="800px" version="1.1" id="Layer_1" xmlns="http://www.w3.org/2000/svg" xmlns:xlink="http://www.w3.org/1999/xlink" viewBox="0 0 512 512" xml:space="preserve" stroke="#00cd00">
<g id="SVGRepo_bgCarrier" stroke-width="0"/>
<g id="SVGRepo_tracerCarrier" stroke-linecap="round" stroke-linejoin="round"/>
<g id="SVGRepo_iconCarrier"> <g> <g> <path d="M68.267,0v512h375.467V0H68.267z M382.801,34.133l-26.819,125.156h-78.123l4.706-18.822 c14.759-8.995,24.635-25.243,24.635-43.755c0-28.232-22.968-51.2-51.2-51.2s-51.2,22.968-51.2,51.2 c0,18.512,9.876,34.76,24.635,43.754l4.706,18.823h-78.122L129.2,34.133H382.801z M256,113.778 c-9.411,0-17.067-7.656-17.067-17.067c0-9.411,7.656-17.067,17.067-17.067c9.411,0,17.067,7.656,17.067,17.067 C273.067,106.122,265.411,113.778,256,113.778z M273.067,256c0,9.411-7.656,17.067-17.067,17.067 c-9.411,0-17.067-7.656-17.067-17.067c0-9.411,7.656-17.067,17.067-17.067C265.411,238.933,273.067,246.589,273.067,256z M135.704,477.867l17.067-34.133h206.46l17.067,34.133H135.704z M409.6,468.149L380.326,409.6H131.674L102.4,468.149V71.97 l26.026,121.452h105.715l-4.706,18.823C214.676,221.24,204.8,237.488,204.8,256c0,28.232,22.968,51.2,51.2,51.2 s51.2-22.968,51.2-51.2c0-18.513-9.876-34.76-24.635-43.755l-4.707-18.822h105.717L409.6,71.97V468.149z"/> </g> </g> </g>
</svg>