<!DOCTYPE svg PUBLIC "-//W3C//DTD SVG 1.1//EN" "http://www.w3.org/Graphics/SVG/1.1/DTD/svg11.dtd">
<!-- Uploaded to: SVG Repo, www.svgrepo.com, Transformed by: SVG Repo Mixer Tools -->
<svg fill="#00cd00" version="1.1" id="Capa_1" xmlns="http://www.w3.org/2000/svg" xmlns:xlink="http://www.w3.org/1999/xlink" width="800px" height="800px" viewBox="0 0 95.252 95.252" xml:space="preserve" stroke="#00cd00">
<g id="SVGRepo_bgCarrier" stroke-width="0"/>
<g id="SVGRepo_tracerCarrier" stroke-linecap="round" stroke-linejoin="round"/>
<g id="SVGRepo_iconCarrier"> <g> <g> <path d="M67.078,24.093c6.473,0,11.735-5.107,12.02-11.509l-2.208-2.208l1.927-1.007C77.597,4.007,72.811,0,67.079,0 c-0.376,0-0.746,0.022-1.111,0.056l-1.452,1.32h-3.017c-0.903,0.474-1.733,1.062-2.483,1.74v2.885l-1.307-1.517 c-1.671,2.068-2.676,4.697-2.676,7.563C55.033,18.7,60.425,24.093,67.078,24.093z"/> <path d="M69.477,83.889L69.477,83.889l-3.712-2.138l2.465-0.468l-1.366-2.852l-2.599-1.182h2.033l-8.38-17.499l0.565-1.289 l-7.844-1.254l5.083-0.75l-0.69-2.917l4.422,2.708l0.323-0.735l-3.638-5.056l4.355,3.417l3.576-8.151 c1.136,5.372,1.499,11.469,0.996,17.911c-0.201,2.575,1.724,4.825,4.299,5.026c0.124,0.009,0.246,0.014,0.368,0.014 c2.418,0,4.467-1.862,4.657-4.313c0.174-2.223,0.29-4.963,0.228-8.006l-2.199-1.229l2.039-2.337 c-0.338-4.985-1.221-10.503-3.123-15.833l-4.271-3.914l2.752,0.226c-0.914-1.976-1.971-3.905-3.237-5.733 c-0.156-0.226-0.338-0.424-0.524-0.614c-0.721-0.984-1.568-1.875-2.501-2.624l-3.996,1.469l-1.347-3.998 c-0.01-0.002-0.02-0.006-0.027-0.008c-1.737-0.355-3.592-0.369-5.365-0.024c-0.245,0.014-0.491,0.033-0.738,0.087 c-2.29,0.508-4.624,1.126-6.999,1.969l-2.025,4.334l-0.803-3.223c-4.428,1.916-8.989,4.766-13.659,9.3l3.17,3.047l-1.703,1.784 l-1.297-1.284l-3.089-0.5c-1.437,1.604-2.882,3.374-4.336,5.342c-1.534,2.077-1.096,5.006,0.981,6.541 c0.837,0.618,1.81,0.916,2.776,0.916c1.433,0,2.848-0.656,3.765-1.898c4.416-5.974,8.627-9.75,12.604-12.26L35.187,50.2 c-0.579,1.269-0.901,3.399-1.007,4.315l-1.229,12.332l3.188,1.778l-3.467,1.021l-0.4,4.026l1.617,2.577l-1.835-0.393l-0.374,3.754 l-6.633-3.656c-2.902-1.602-6.549-0.545-8.147,2.355c-1.598,2.899-0.544,6.549,2.356,8.147l5.027,2.772l3.356-2.104v3.955 l3.029,1.67h2.971l-0.61,1.302l0.822,0.453c0.9,0.497,1.897,0.746,2.896,0.746c0.958,0,1.916-0.229,2.79-0.688 c1.784-0.938,2.978-2.709,3.178-4.715l2.366-23.752c0.9,0.178,1.807,0.266,2.704,0.264l5.774,12.062l-2.217-0.572 c-3.205-0.828-6.479,1.096-7.31,4.305c-0.829,3.207,1.099,6.479,4.306,7.308l14.693,3.8c0.497,0.129,1.001,0.19,1.501,0.19 c1.768,0,3.477-0.782,4.631-2.187c1.482-1.801,1.786-4.299,0.779-6.4L69.477,83.889z"/> </g> </g> </g>
</svg>