<!DOCTYPE svg PUBLIC "-//W3C//DTD SVG 1.1//EN" "http://www.w3.org/Graphics/SVG/1.1/DTD/svg11.dtd">
<!-- Uploaded to: SVG Repo, www.svgrepo.com, Transformed by: SVG Repo Mixer Tools -->
<svg fill="#00cd00" version="1.1" id="Capa_1" xmlns="http://www.w3.org/2000/svg" xmlns:xlink="http://www.w3.org/1999/xlink" width="800px" height="800px" viewBox="0 0 45.845 45.845" xml:space="preserve" stroke="#00cd00">
<g id="SVGRepo_bgCarrier" stroke-width="0"/>
<g id="SVGRepo_tracerCarrier" stroke-linecap="round" stroke-linejoin="round"/>
<g id="SVGRepo_iconCarrier"> <g> <g> <path d="M32.55,3.931C32.55,1.76,30.79,0,28.618,0H17.221c-2.168,0-3.926,1.758-3.926,3.926v1.362c0,0.624,0.506,1.13,1.13,1.13 h16.996c0.623,0,1.129-0.506,1.129-1.13V3.931L32.55,3.931z"/> <path d="M34.095,13.376H31.04V9.765c0-0.984-0.799-1.782-1.783-1.782H16.588c-0.985,0-1.783,0.798-1.783,1.782v3.611H11.75 c-1.828,0-3.31,1.481-3.31,3.309v25.851c0,1.828,1.481,3.31,3.31,3.31h22.344c1.828,0,3.31-1.481,3.31-3.31V16.685 C37.403,14.858,35.923,13.376,34.095,13.376z M34.491,35.5c0,0.593-0.46,1.068-1.053,1.068H12.411 c-0.593,0-1.058-0.476-1.058-1.068V23.742c0-0.592,0.465-1.089,1.058-1.089h21.027c0.593,0,1.053,0.498,1.053,1.089V35.5z"/> </g> </g> </g>
</svg>