<!DOCTYPE svg PUBLIC "-//W3C//DTD SVG 1.1//EN" "http://www.w3.org/Graphics/SVG/1.1/DTD/svg11.dtd">
<!-- Uploaded to: SVG Repo, www.svgrepo.com, Transformed by: SVG Repo Mixer Tools -->
<svg fill="#00cd00" version="1.1" id="Capa_1" xmlns="http://www.w3.org/2000/svg" xmlns:xlink="http://www.w3.org/1999/xlink" width="800px" height="800px" viewBox="0 0 53.333 53.333" xml:space="preserve" stroke="#00cd00">
<g id="SVGRepo_bgCarrier" stroke-width="0"/>
<g id="SVGRepo_tracerCarrier" stroke-linecap="round" stroke-linejoin="round"/>
<g id="SVGRepo_iconCarrier"> <g> <path d="M40.505,0H12.828c-1.657,0-3,1.343-3,3v47.333c0,1.657,1.343,3,3,3h27.678c1.657,0,3-1.343,3-3V3 C43.505,1.342,42.163,0,40.505,0z M16.974,9.535c1.621-1.577,4.217-1.543,5.795,0.078c0.672,0.691,1.048,1.557,1.138,2.446 l-8.149-0.005C15.852,11.131,16.257,10.233,16.974,9.535z M23.856,13.229c-0.15,0.801-0.538,1.566-1.166,2.179 c-1.621,1.577-4.217,1.543-5.795-0.078c-0.585-0.601-0.947-1.337-1.091-2.104L23.856,13.229z M17.021,22.633 c1.621-1.577,4.217-1.543,5.795,0.078c0.672,0.69,1.048,1.557,1.138,2.446l-8.149-0.005C15.899,24.229,16.305,23.331,17.021,22.633 z M23.905,26.327c-0.15,0.802-0.538,1.565-1.166,2.181c-1.621,1.575-4.217,1.543-5.795-0.078c-0.585-0.604-0.947-1.338-1.091-2.104 L23.905,26.327z M22.787,41.604c-1.621,1.576-4.217,1.543-5.795-0.078c-0.585-0.602-0.947-1.337-1.091-2.104l8.052,0.004 C23.803,40.225,23.415,40.991,22.787,41.604z M15.853,38.25c0.095-0.924,0.499-1.82,1.217-2.52 c1.621-1.577,4.217-1.543,5.795,0.076c0.672,0.69,1.048,1.559,1.138,2.447L15.853,38.25z M31.349,9.535 c1.621-1.577,4.217-1.543,5.795,0.078c0.672,0.691,1.049,1.557,1.139,2.446l-8.148-0.005C30.226,11.131,30.632,10.233,31.349,9.535 z M38.23,13.229c-0.148,0.801-0.537,1.566-1.166,2.179c-1.619,1.577-4.217,1.543-5.795-0.078c-0.584-0.601-0.945-1.337-1.09-2.104 L38.23,13.229z M31.396,22.633c1.621-1.577,4.218-1.543,5.795,0.078c0.673,0.69,1.049,1.557,1.139,2.446l-8.148-0.005 C30.273,24.229,30.681,23.331,31.396,22.633z M38.28,26.327c-0.15,0.802-0.538,1.565-1.166,2.181 c-1.621,1.575-4.218,1.543-5.796-0.078c-0.586-0.604-0.946-1.338-1.092-2.104L38.28,26.327z M37.162,41.604 c-1.621,1.576-4.217,1.543-5.795-0.078c-0.585-0.602-0.947-1.337-1.092-2.104l8.053,0.004 C38.179,40.225,37.79,40.991,37.162,41.604z M30.226,38.25c0.097-0.924,0.5-1.82,1.219-2.52c1.619-1.577,4.217-1.543,5.795,0.076 c0.672,0.69,1.048,1.559,1.138,2.447L30.226,38.25z"/> </g> </g>
</svg>